<svg data-v-423bf9ae="" xmlns="http://www.w3.org/2000/svg" viewBox="0 0 423 109" class="iconLeft"><!----><!----><!----><g data-v-423bf9ae="" id="048eb75a-c66a-43e5-888f-4e00642ac4cc" fill="white" transform="matrix(4.608294768854844,0,0,4.608294768854844,121.26140918011995,24.25765037536621)"><path d="M1.28 12.88L4.15 12.88C7.04 12.88 9.40 10.54 9.40 7.63C9.40 4.72 7.04 2.38 4.15 2.38L1.28 2.38ZM2.38 11.76L2.38 3.50L4.13 3.50C6.46 3.50 8.28 5.27 8.28 7.63C8.28 9.99 6.46 11.76 4.13 11.76ZM12.22 4.57C12.62 4.57 12.97 4.23 12.97 3.83C12.97 3.39 12.62 3.08 12.22 3.08C11.80 3.08 11.45 3.39 11.45 3.83C11.45 4.23 11.80 4.57 12.22 4.57ZM11.67 12.88L12.76 12.88L12.76 5.88L11.67 5.88ZM19.81 5.88L17.66 11.62L15.49 5.88L14.32 5.88L17.12 12.88L18.16 12.88L20.98 5.88ZM29.93 11.97C29.54 11.97 29.21 11.71 29.21 11.06L29.21 5.88L28.12 5.88L28.12 6.79C27.48 6.14 26.57 5.74 25.57 5.74C23.55 5.74 21.93 7.37 21.93 9.38C21.93 11.39 23.55 13.02 25.57 13.02C26.62 13.02 27.56 12.53 28.23 11.81C28.46 12.53 29.02 13.02 29.84 13.02C30.03 13.02 30.22 12.97 30.36 12.88L30.36 11.97ZM25.57 11.94C24.15 11.94 23.01 10.80 23.01 9.38C23.01 7.96 24.15 6.83 25.57 6.83C26.97 6.83 28.12 7.96 28.12 9.38C28.12 10.80 26.97 11.94 25.57 11.94ZM37.19 11.76L37.19 2.38L36.07 2.38L36.07 12.88L41.09 12.88L41.09 11.76ZM50.03 11.97C49.65 11.97 49.32 11.71 49.32 11.06L49.32 5.88L48.23 5.88L48.23 6.79C47.58 6.14 46.67 5.74 45.68 5.74C43.66 5.74 42.04 7.37 42.04 9.38C42.04 11.39 43.66 13.02 45.68 13.02C46.73 13.02 47.67 12.53 48.34 11.81C48.56 12.53 49.12 13.02 49.95 13.02C50.14 13.02 50.33 12.97 50.47 12.88L50.47 11.97ZM45.68 11.94C44.26 11.94 43.12 10.80 43.12 9.38C43.12 7.96 44.26 6.83 45.68 6.83C47.08 6.83 48.23 7.96 48.23 9.38C48.23 10.80 47.08 11.94 45.68 11.94ZM55.60 5.74C54.60 5.74 53.71 6.14 53.04 6.79L53.04 0L51.96 0L51.96 12.88L53.04 12.88L53.04 11.97C53.71 12.62 54.60 13.02 55.60 13.02C57.61 13.02 59.24 11.39 59.24 9.38C59.24 7.37 57.61 5.74 55.60 5.74ZM55.60 11.94C54.18 11.94 53.04 10.80 53.04 9.38C53.04 7.96 54.18 6.83 55.60 6.83C57.02 6.83 58.15 7.96 58.15 9.38C58.15 10.80 57.02 11.94 55.60 11.94ZM63.04 13.02C64.26 13.02 65.28 12.20 65.28 10.99C65.28 9.73 64.23 9.24 63.32 8.87C62.46 8.51 62.02 8.31 62.02 7.70C62.02 7.11 62.42 6.83 63.00 6.83C63.46 6.83 63.86 7.02 64.05 7.39L65.00 6.90C64.73 6.27 63.84 5.74 62.95 5.74C61.92 5.74 60.92 6.46 60.92 7.74C60.92 8.84 61.65 9.40 62.90 9.87C63.74 10.20 64.19 10.43 64.19 10.99C64.19 11.60 63.67 11.95 63.04 11.95C62.39 11.95 61.76 11.59 61.65 11.08L60.60 11.50C60.87 12.34 61.92 13.02 63.04 13.02Z"></path></g><!----><g data-v-423bf9ae="" id="a6ecd79c-a6ca-45d7-9f7d-a325e279a369" transform="matrix(1.0980553521050347,0,0,1.0980553521050347,-0.7310309937132047,0.7423499671069749)" stroke="none" fill="white"><path d="M95.267 21.241a3.862 3.862 0 1 0 0-7.724 3.858 3.858 0 0 0-3.752 2.982l-19.04 3.862a6.584 6.584 0 0 0-4.693-3.498l-.3-8.391A4.413 4.413 0 0 0 65.75 0a4.414 4.414 0 0 0-4.414 4.414 4.405 4.405 0 0 0 3.396 4.283l.295 8.255a6.586 6.586 0 0 0-3.929 2.786L45.49 10.299c.073-.296.123-.602.123-.92a3.861 3.861 0 1 0-7.724 0 3.861 3.861 0 0 0 6.032 3.193l16.183 9.789c-.048.319-.08.644-.08.976 0 .963.212 1.875.583 2.699L36.021 50.564a6.556 6.556 0 0 0-4.165-1.486c-1.343 0-2.59.404-3.631 1.094L16.558 38.505a5.345 5.345 0 0 0 .985-3.088 5.379 5.379 0 1 0-5.379 5.379c.813 0 1.577-.194 2.268-.518l11.865 11.866a6.546 6.546 0 0 0-1.025 3.518c0 .497.06.979.164 1.444l-16.813 5.65a3.862 3.862 0 1 0-3.217 5.993 3.85 3.85 0 0 0 3.803-3.28l17.398-5.846a6.569 6.569 0 0 0 4.183 2.527l-.003 9.885a4.408 4.408 0 0 0 .964 8.714 4.414 4.414 0 0 0 4.414-4.413 4.405 4.405 0 0 0-2.62-4.025l.004-10.294a6.592 6.592 0 0 0 4.271-3.58l22.252 4.481c-.033.234-.072.465-.072.707a5.126 5.126 0 0 0 5.125 5.125c.374 0 .736-.045 1.087-.121l3.639 8.99c-1.05.836-1.737 2.107-1.737 3.555 0 .74.193 1.43.508 2.047l-7.385 7.743c-.033-.013-.062-.034-.097-.046a3.86 3.86 0 1 0-2.614 7.266 3.862 3.862 0 0 0 4.941-2.327 3.847 3.847 0 0 0-.189-3.035l7.281-7.637a4.5 4.5 0 0 0 2.105.538c1.195 0 2.273-.47 3.086-1.224l13.693 9.205a3.81 3.81 0 0 0-.228 1.261 3.861 3.861 0 1 0 3.86-3.862c-.668 0-1.289.186-1.838.486l-14.119-9.491a4.551 4.551 0 0 0-4.455-5.478c-.08 0-.153.019-.231.022l-3.754-9.337a5.1 5.1 0 0 0 1.571-3.682 5.126 5.126 0 0 0-5.125-5.125c-1.594 0-3.001.743-3.94 1.886l-22.749-4.652c0-.024.003-.047.003-.071 0-1.056-.254-2.05-.696-2.934l24.501-24.472a6.554 6.554 0 0 0 4.363 1.663 6.55 6.55 0 0 0 3.656-1.11l12.703 12.703a4.388 4.388 0 0 0-.391 1.797 4.414 4.414 0 1 0 4.414-4.414c-.787 0-1.516.223-2.154.584L72.183 26.826a6.548 6.548 0 0 0 1.008-3.49c0-.103-.011-.202-.016-.304L91.9 19.235c.658 1.191 1.911 2.006 3.367 2.006z"></path></g><!----></svg>